PathFileType	4	(X/Y/Z)	/home/abdul/Desktop/myosuite/custom_workspace/IK/output/S13_12_1.trc
DataRate	CameraRate	NumFrames	NumMarkers	Units	OrigDataRate	OrigDataStartFrame	OrigNumFrames
200.0	200.0	51	3	mm	200.0	1	1500
Frame#	Time	V_Shoulder			V_Elbow			V_Wrist		
		X1	Y1	Z1	X2	Y2	Z2	X3	Y3	Z3

1	0.0	-95.57239405751484	615.1192430912378	325.5389522703028	-240.1415410140149	528.5544806883388	4.580591551222486	-270.54719504865477	261.9996298744842	37.99364854376788
2	0.005	-95.57260763488223	615.1098442829351	325.53024497590695	-240.14428281140366	528.5557091902715	4.578048060818119	-270.55682773626995	261.9993902129028	37.99021541622866
3	0.01	-95.57279165188397	615.1003556706263	325.52137459286774	-240.14738411624424	528.5572464183272	4.575479579747011	-270.5665343146078	261.99945438816377	37.98711392944983
4	0.015	-95.57294379675291	615.09078982378	325.5123473339869	-240.15084955102853	528.5591001542243	4.572886912237909	-270.5762832063951	261.99983675693113	37.98437186914186
5	0.02	-95.57306174809709	615.0811595905091	325.5031696165727	-240.1546824911239	528.5612772466909	4.570270715197781	-270.5860412483719	262.0005510897364	37.98201688079747
6	0.025	-95.57314318136405	615.07147806478	325.4938480433846	-240.15888499145146	528.5637835381344	4.5676314869369286	-270.5957737481743	262.001610487061	37.980076348851895
7	0.03	-95.57318577546738	615.0617585530391	325.4843893833284	-240.1634577150547	528.5666237918782	4.5649695565203015	-270.60544454994783	262.00302729407645	37.978577270896636
8	0.035	-95.57318721955369	615.0520145403998	325.4748005519969	-240.1683998639453	528.5698016202912	4.562285073832474	-270.6150161088493	262.00481301432353	37.97754612721216
9	0.04	-95.57314521988718	615.0422596565397	325.46508859215083	-240.1737091126202	528.5733194141474	4.559578000443244	-270.6244495745692	262.0069782226276	37.97700874591771
10	0.045	-95.57305750682904	615.0325076414479	325.4552606542318	-240.17938154465403	528.5771782735653	4.556848101359975	-270.6337048839779	262.00953247756684	37.976990164068674
11	0.05	-95.57292184188829	615.0227723111651	325.4453239769954	-240.1854115927768	528.5813779408854	4.5540949377516124	-270.64274086296734	262.01248423382367	37.97751448506555
12	0.055	-95.57273602482114	615.0130675236501	325.43528586835026	-240.19179198285187	528.5859167358578	4.551317860727815	-270.6515153375294	262.0158407547682	37.978604732771444
13	0.06	-95.57249790075514	615.0034071449026	325.4251536864852	-240.19851368217402	528.5907914935165	4.548516006254786	-270.65998525407554	262.0196080256368	37.98028270276874
14	0.065	-95.57220536731519	614.9938050154669	325.4149348213621	-240.20556585250927	528.5959975051265	4.545688291287135	-270.6681068089688	262.02379066768435	37.98256881121873
15	0.07	-95.57185638172818	614.9842749174363	325.40463667664864	-240.2129358082994	528.6015284625989	4.542833411192591	-270.67583558719986	262.02839185370186	37.9854819418213
16	0.075	-95.57144896788316	614.9748305420698	325.39426665216007	-240.22060898045305	528.6073764067675	4.539949838543388	-270.6831267101008	262.0334132253057	37.989039291404474
17	0.08	-95.57098122332502	614.9654854581244	325.38383212687626	-240.2285688861431	528.6135316799323	4.537035823344867	-270.6899349919478	262.0388548124157	37.99325621470599
18	0.085	-95.57045132615883	614.9562530810058	325.3733404425925	-240.2367971050253	528.6199828830731	4.5340893947681025	-270.6962151052629	262.0447149553513	37.99814606894084
19	0.09	-95.56985754184318	614.9471466428226	325.36279888826175	-240.2452732622875	528.6267168381357	4.53110836444934	-270.70192175458163	262.0509902299853	38.00372005877955
20	0.095	-95.56919822985101	614.9381791634328	325.3522146850774	-240.2539750189307	528.6337185557986	4.528090331414484	-270.70700985840597	262.0576753764027	38.009987082391966
21	0.1	-95.56847185017703	614.9293634225528	325.3415949723441	-240.26287806967207	528.6409712091186	4.525032688682058	-270.71143473901736	262.0647632315212	38.01695357924011
22	0.105	-95.56767696967064	614.9207119330027	325.330946794176	-240.2719561488495	528.6484561134546	4.521932631592801	-270.71515231977753	262.0722446661348	38.02462338033126
23	0.11	-95.56681226817517	614.9122369151429	325.3202770870603	-240.28118104469155	528.6561527130614	4.518787167908398	-270.7181193294942	262.08010852684686	38.03299756166857
24	0.115	-95.5658765444531	614.9039502725573	325.30959266831667	-240.29052262230095	528.6640385747343	4.515593129715825	-270.72029351338296	262.08834158336305	38.042074301660456
25	0.12	-95.56486872187924	614.8958635690279	325.2989002254788	-240.29994885568206	528.6720893888821	4.5123471871673395	-270.72163385010344	262.0969284816157	38.05184874327326
26	0.125	-95.56378785388291	614.8879880068386	325.2882063066213	-240.30942586912013	528.6802789783867	4.509045864079404	-270.72210077429986	262.1058517031895	38.06231286173163
27	0.13	-95.5626331291224	614.8803344064344	325.27751731164744	-240.31891798819896	528.6885793155986	4.5056855554066395	-270.72165640402466	262.1150915315177	38.07345533858963
28	0.135	-95.56140387637394	614.8729131874641	325.2668394845528	-240.32838780071756	528.6969605477998	4.5022625465993595	-270.72026477237364	262.1246260253149	38.085261443011674
29	0.14	-95.56009956911923	614.8657343512178	325.25617890667087	-240.33779622773915	528.7053910314451	4.498773034845447	-270.71789206260917	262.13443099970345	38.097712921115274
30	0.145	-95.55871982981559	614.8588074644698	325.2455414909068	-240.34710260497647	528.7138373754772	4.495213152189077	-270.71450684600006	262.14448001548544	38.110787894238634
31	0.15	-95.5572644338335	614.8521416447287	325.2349329769576	-240.3562647746849	528.7222644939836	4.491578990510394	-270.71008032155447	262.1547443770004	38.124460767003455
32	0.155	-95.55573331304697	614.8457455468906	325.22435892751633	-240.36523918820126	528.7306356684404	4.487866628341411	-270.7045865567749	262.16519313899664	38.13870214604772
33	0.16	-95.55412655906287	614.8396273512852	325.2138247254516	-240.37398101923006	528.73891261976	4.484072159484429	-270.69800272851614	262.1757931229308	38.153478770304574
34	0.165	-95.55244442607544	614.8337947530987	325.2033355719523	-240.38244428794033	528.7470555903309	4.480191723390032	-270.6903093629785	262.1865089430904	38.16875345370084
35	0.17	-95.5506873333339	614.8282549531505	325.192896485622	-240.39058199589573	528.7550234362061	4.476221537242299	-270.6814905738265	262.1973030429178	38.18448504114265
36	0.175	-95.54885586721021	614.8230146499997	325.18251230250445	-240.39834627179886	528.7627737295604	4.47215792968924	-270.67153429737607	262.20813574189003	38.20062837864593
37	0.18	-95.54695078285592	614.818080033348	325.1721876770221	-240.40568852798577	528.7702628715051	4.46799737614678	-270.66043252375334	262.2189652932856	38.21713429845507
38	0.185	-95.54497300543687	614.813456778703	325.16192708379987	-240.41255962756082	528.777446215305	4.463736535594871	-270.64818152289047	262.2297479531422	38.233949619975604
39	0.19	-95.54292363093532	614.8091500432635	325.151734820351	-240.41891006201462	528.7842782000065	4.459372288774416	-270.6347820641833	262.24043806068096	38.25101716732368
40	0.195	-95.54080392650947	614.8051644629815	325.1416150105949	-240.4246901391184	528.7907124944412	4.454901777683961	-270.62023962860496	262.2509881304391	38.26827580426867
41	0.2	-95.53861533040163	614.8015041507534	325.13157160917586	-240.4298501808372	528.7967021515242	4.450322446265313	-270.6045646120372	262.26134895632015	38.2856604873133
42	0.205	-95.53635945138579	614.7981726956938	325.1216084065507	-240.43434073095221	528.8021997727222	4.445632082157644	-270.5877725185544	262.27146972773335	38.303102337620004
43	0.21	-95.53403806774713	614.7951731634322	325.11172903480934	-240.4381127720302	528.8071576825176	4.440828859390216	-270.5698841423695	262.2812981579539	38.32052873245073
44	0.215	-95.53165312578552	614.7925080973853	325.1019369741926	-240.4411179513231	528.8115281126438	4.435911381874535	-270.5509257371361	262.29078062479493	38.33786341674186
45	0.22	-95.52920673783642	614.7901795209409	325.0922355602698	-240.44330881512633	528.8152633958184	4.430878727547878	-270.53092917127816	262.2998623236357	38.355026635384974
46	0.225	-95.52670117980286	614.7881889404979	325.0826279917375	-240.44463905106917	528.8183161686453	4.425730493011471	-270.5099320680149	262.3084874328058	38.37193528672856
47	0.23	-95.52413888819292	614.786537349301	325.07311733879845	-240.4450637377543	528.8206395833076	4.420466838498397	-270.4879779287378	262.31659929127403	38.388503097754636
48	0.235	-95.52152245665705	614.7852252320089	325.06370655208167	-240.44453960110812	528.8221875276138	4.415088532998535	-270.4651162383968	262.3241405885399	38.404640821318694
49	0.24	-95.51885463202132	614.7842525699319	325.05439847206134	-240.44302527674722	528.8229148529059	4.409596999360623	-270.44140255155816	262.3310535665713	38.42025645577034
50	0.245	-95.51613830981223	614.7836188468808	325.04519583893284	-240.44048157761137	528.8227776092851	4.403994359184837	-270.41689855780464	262.3372802335772	38.43525548719621
51	0.25	-95.51337652927009	614.7833230555575	325.0361013029046	-240.43687176605755	528.8217332875494	4.398283477313264	-270.391672125165	262.34276258934324	38.44954115444591
